<svg width="263" height="297" viewBox="0 0 263 297" fill="none" xmlns="http://www.w3.org/2000/svg">
<g clip-path="url(#clip0_21_13)">
<path d="M98.7636 281.44C83.7066 272.72 71.3873 265.25 71.3873 264.84C71.3873 264 125.949 232.144 126.648 232.577C127.254 232.953 127.226 296.621 126.619 296.997C126.355 297.16 113.821 290.159 98.7636 281.44ZM134.167 296.932C133.974 296.738 133.816 282.227 133.816 264.685C133.816 235.392 133.892 232.789 134.742 232.789C135.56 232.789 186.23 261.845 188.997 263.9C189.963 264.618 189.991 264.802 189.246 265.526C188.503 266.249 140.705 294.085 136.267 296.379C135.305 296.877 134.36 297.125 134.167 296.932ZM67.2179 257.538C66.3036 255.826 66.4085 195.695 67.3279 194.473C67.9532 193.642 70.9353 195.229 95.3325 209.378C114.128 220.278 122.588 225.475 122.481 226.052C122.362 226.688 87.2954 247.634 69.8774 257.474C67.8266 258.632 67.8023 258.633 67.2179 257.538ZM165.738 242.731C150.806 234.02 138.517 226.513 138.428 226.049C138.315 225.464 146.627 220.364 165.576 209.394C189.797 195.37 192.965 193.685 193.585 194.492C194.126 195.195 194.285 202.393 194.285 226.055C194.285 249.705 194.126 256.919 193.585 257.638C192.96 258.471 190.006 256.89 165.738 242.731ZM31.6344 242.273C16.853 233.648 4.75916 226.316 4.75916 225.98C4.75916 225.392 58.4112 194.066 59.4175 194.066C59.6942 194.066 59.9093 208.057 59.9093 226.055C59.9093 251.296 59.7616 258.034 59.2094 257.999C58.8245 257.974 46.4158 250.898 31.6344 242.273ZM201.004 226.079C201.004 199.152 201.128 194.013 201.773 194.165C202.196 194.265 214.666 201.291 229.484 209.78C246.843 219.724 256.377 225.494 256.29 226.002C256.164 226.735 204.151 257.284 201.984 257.897C201.059 258.159 201.004 256.378 201.004 226.079ZM0 187.041V154.762L2.65953 156.146C11.141 160.558 55.1502 186.668 55.1502 187.287C55.1502 188.031 2.01854 219.272 0.699918 219.303C0.14794 219.316 0 212.499 0 187.041ZM98.2625 203.653C83.4811 195.066 71.3873 187.705 71.3873 187.296C71.3873 186.432 125.897 154.666 126.616 155.111C126.881 155.275 127.097 169.789 127.097 187.365C127.097 217.435 127.04 219.319 126.118 219.294C125.579 219.279 113.044 212.241 98.2625 203.653ZM133.816 187.365C133.816 169.752 134.036 155.273 134.305 155.106C135.195 154.554 189.526 186.236 189.526 187.307C189.526 188.2 136.376 219.272 134.796 219.302C133.874 219.319 133.816 217.431 133.816 187.365ZM232.918 203.709C217.039 194.59 205.763 187.782 205.763 187.313C205.763 186.714 246.863 162.456 259.13 155.816C260.2 155.236 260.516 155.256 260.941 155.93C261.508 156.827 261.693 216.972 261.133 218.432C260.947 218.921 260.632 219.317 260.434 219.312C260.236 219.308 247.854 212.287 232.918 203.709ZM588.668 196.885C583.819 195.611 578.142 192.804 573.545 189.407C570.237 186.963 567.179 183.623 567.179 182.453C567.179 181.888 573.55 175.546 574.117 175.546C574.284 175.546 575.71 176.694 577.287 178.098C584.489 184.51 590.51 187.032 597.693 186.647C609.35 186.023 616.343 177.576 613.453 167.611C611.673 161.472 606.684 157.605 595.454 153.659C582.008 148.936 576.281 144.75 572.617 136.968C570.952 133.431 570.834 132.778 570.867 127.282C570.906 120.662 571.955 117.07 575.248 112.28C577.453 109.073 582.894 105.206 586.923 103.982C594.219 101.766 604.325 102.508 611.253 105.768C614.485 107.289 620.929 111.849 620.929 112.616C620.929 113.354 615.271 120.548 614.69 120.548C614.411 120.548 612.925 119.68 611.388 118.62C606.663 115.362 602.869 114.172 597.134 114.15C593.017 114.133 591.672 114.354 589.785 115.35C585.231 117.756 582.746 122.106 582.646 127.843C582.596 130.75 582.859 131.974 583.938 133.869C585.813 137.159 588.174 138.623 597.179 142.084C601.465 143.731 606.358 145.777 608.052 146.63C621.225 153.265 627.314 163.465 625.481 175.822C624.614 181.659 622.554 185.784 618.45 189.896C612.961 195.395 606.124 198.02 597.436 197.963C594.665 197.947 590.978 197.492 588.668 196.885ZM696.143 197.379C692.454 196.761 684.833 193.98 681.475 192.026C669.422 185.011 660.768 173.095 658.126 159.873C656.986 154.166 657.284 142.925 658.716 137.665C660.111 132.535 664.173 124.639 667.639 120.314C684.376 99.4299 713.777 96.0645 734.596 112.649C742.539 118.977 748.846 128.576 751.481 138.35C753.138 144.496 753.148 156.052 751.502 162.153C746.748 179.765 731.735 193.783 713.964 197.204C709.497 198.063 700.745 198.149 696.143 197.379ZM713.207 185.919C723.309 183.532 732.823 175.844 737.339 166.419C742.598 155.445 742.513 144.594 737.081 133.565C733.715 126.729 728.45 121.29 721.886 117.867C715.715 114.649 711.474 113.618 704.634 113.671C694.714 113.749 687.269 116.924 679.962 124.193C672.422 131.694 669.105 139.662 669.089 150.314C669.078 156.827 670.043 160.866 673.101 167.126C677.383 175.89 686.281 183.066 696.046 185.63C701.056 186.945 708.344 187.068 713.207 185.919ZM801.705 196.923C797.315 195.736 791.578 193.125 788.126 190.745C784.705 188.385 780.501 184.072 780.501 182.92C780.501 182.395 782.011 180.467 783.856 178.637L787.211 175.31L789.315 177.295C797.906 185.403 806.711 188.339 815.361 185.981C822.336 184.08 826.384 179.395 826.87 172.663C827.215 167.881 825.864 164.465 822.286 161.073C818.764 157.735 816.425 156.478 808.87 153.865C795.809 149.349 789.264 144.807 785.926 137.944C783.147 132.228 782.977 123.75 785.508 117.067C786.861 113.494 790.734 108.826 794.124 106.68C802.077 101.648 815.168 101.347 824.577 105.98C828.365 107.844 833.691 111.799 833.691 112.747C833.691 113.555 828.694 120.006 827.802 120.349C827.406 120.501 825.86 119.745 824.365 118.668C816.78 113.206 806.655 112.329 800.743 116.621C797.598 118.905 795.618 123.181 795.618 127.691C795.618 129.647 795.963 132.075 796.385 133.087C797.658 136.139 801.309 138.753 807.549 141.076C817.162 144.656 821.952 146.851 825.912 149.489C833.222 154.36 837.263 160.366 838.259 167.842C840.148 182.012 832.126 193.916 818.522 197.13C813.733 198.262 806.317 198.17 801.705 196.923ZM343.611 196.517C343.395 196.301 343.219 182.15 343.219 165.07C343.219 138.944 343.342 134.017 343.997 134.017C344.424 134.017 347.072 137.096 349.881 140.859L354.988 147.701L354.842 172.146L354.697 196.591L349.35 196.751C346.409 196.838 343.827 196.734 343.611 196.517ZM429.836 196.517C429.62 196.301 429.443 181.897 429.443 164.509C429.443 147.121 429.254 132.895 429.023 132.896C428.793 132.897 426.408 135.99 423.724 139.771C421.04 143.551 413.783 153.084 407.597 160.955C391.684 181.203 392.542 180.217 391.551 179.392C390.098 178.183 360.598 139.32 351.718 126.915L343.219 115.043V107.413C343.219 102.967 343.441 99.783 343.751 99.783C344.522 99.783 346.011 101.663 369.971 132.894C381.929 148.482 391.935 161.235 392.207 161.235C392.479 161.235 402.921 147.935 415.412 131.68C427.902 115.424 438.607 101.591 439.2 100.94C439.794 100.289 440.488 99.966 440.743 100.222C440.999 100.478 441.143 122.266 441.064 148.639L440.921 196.591L435.575 196.751C432.634 196.838 430.051 196.734 429.836 196.517ZM477.293 196.17C477.146 195.785 477.091 174.76 477.17 149.45L477.315 103.431H505.87H534.425V108.762V114.094L511.749 114.374L489.073 114.655V129.246V143.838L509.229 144.118L529.386 144.399V149.731V155.062L509.229 155.343L489.073 155.623L488.924 170.636L488.774 185.648H512.28C534.946 185.648 535.806 185.687 536.365 186.733C536.993 187.91 537.137 193.567 536.591 195.609L536.254 196.872H506.907C483.945 196.872 477.502 196.719 477.293 196.17ZM32.4701 165.132C17.8715 156.666 5.57229 149.383 5.1385 148.948C4.46017 148.268 4.53515 148.041 5.67426 147.323C10.3808 144.358 58.8493 116.619 59.3235 116.619C60.027 116.619 60.1636 179.812 59.461 180.247C59.2145 180.4 47.0686 173.598 32.4701 165.132ZM66.9679 179.709C66.5206 178.541 66.541 118.967 66.9894 117.289C67.2304 116.387 67.6099 116.099 68.2415 116.34C68.7399 116.53 81.1866 123.67 95.9008 132.206C113.654 142.506 122.601 147.997 122.496 148.531C122.333 149.361 69.2555 180.597 68.0081 180.597C67.623 180.597 67.1548 180.197 66.9679 179.709ZM165.445 164.985C147.089 154.32 138.575 149.079 138.575 148.445C138.575 147.809 147.155 142.548 165.73 131.79C180.666 123.141 193.045 116.063 193.24 116.062C193.435 116.06 193.747 116.626 193.932 117.321C194.375 118.977 194.388 178.554 193.945 179.709C193.758 180.197 193.315 180.597 192.96 180.597C192.605 180.597 180.224 173.572 165.445 164.985ZM201.004 148.608C201.004 125.645 201.178 116.619 201.622 116.619C202.991 116.619 256.439 147.796 256.299 148.513C256.161 149.224 202.597 180.597 201.521 180.597C201.211 180.597 201.004 167.767 201.004 148.608ZM0 109.59C0 79.1375 0.0537349 77.3903 0.979808 77.7399C2.59626 78.3501 53.9636 108.252 54.8463 109.096C55.3583 109.586 55.4625 110.062 55.1261 110.375C54.0989 111.329 1.95218 141.41 0.979808 141.609C0.0557029 141.798 0 139.977 0 109.59ZM98.8224 126.143C84.0411 117.544 71.9472 110.181 71.9472 109.779C71.9472 108.825 125.364 77.7552 126.351 78.135C126.975 78.3749 127.081 83.9179 126.962 109.963C126.868 130.4 126.62 141.548 126.257 141.638C125.949 141.714 113.604 134.741 98.8224 126.143ZM134.466 141.178C133.681 140.391 133.54 79.7634 134.32 78.5291C134.587 78.1056 135.064 77.853 135.38 77.9678C135.695 78.0826 147.943 85.1215 162.596 93.6098C179.229 103.244 189.188 109.331 189.103 109.809C189.028 110.23 177.124 117.434 162.651 125.818C148.178 134.202 136.061 141.235 135.725 141.445C135.39 141.656 134.823 141.536 134.466 141.178ZM232.918 126.204C217.983 117.622 205.702 110.25 205.626 109.822C205.539 109.326 215.078 103.532 231.854 93.8904C246.355 85.5564 258.719 78.5013 259.329 78.2122C260.13 77.8326 260.58 77.9106 260.947 78.4928C261.508 79.3809 261.687 139.54 261.134 140.986C260.947 141.474 260.632 141.859 260.434 141.841C260.236 141.824 247.854 134.786 232.918 126.204ZM32.4701 87.6852C17.8715 79.219 5.57229 71.9364 5.1385 71.5016C4.46017 70.8217 4.53515 70.5939 5.67426 69.8731C10.0604 67.0982 58.0892 39.5188 58.9105 39.3035C59.8604 39.0545 59.9093 40.5995 59.9093 70.7823C59.9093 88.2396 59.7077 102.648 59.4611 102.8C59.2147 102.953 47.0686 96.1513 32.4701 87.6852ZM67.5613 102.776C67.356 102.57 67.188 88.1754 67.188 70.7873C67.188 44.6219 67.3184 39.1726 67.9439 39.1726C68.5303 39.1726 115.36 66.0592 121.423 69.8771C122.549 70.5859 122.632 70.8273 121.976 71.4849C121.381 72.0811 68.4514 103.15 68.0305 103.15C67.9778 103.15 67.7666 102.982 67.5613 102.776ZM166.257 87.6979C151.671 79.2213 139.383 71.9315 138.951 71.4984C138.277 70.8228 138.354 70.5927 139.49 69.8766C144.478 66.7346 191.748 39.56 192.628 39.3294C193.709 39.0462 193.725 39.5305 193.725 70.7823C193.725 88.2396 193.512 102.655 193.252 102.816C192.991 102.978 180.843 96.1746 166.257 87.6979ZM201.004 71.096C201.004 39.6586 201.025 39.0472 202.089 39.3261C204.558 39.9732 256.436 70.3551 256.299 71.0732C256.169 71.7531 202.471 103.15 201.438 103.15C201.199 103.15 201.004 88.7259 201.004 71.096ZM98.5846 48.7145C83.6789 40.0726 71.3507 32.8691 71.1886 32.7067C71.0265 32.5442 71.2569 32.0559 71.7005 31.6214C72.7548 30.5887 124.77 0.367095 126.088 0.0217795C127.052 -0.23095 127.097 1.21079 127.097 32.0921C127.097 57.7261 126.951 64.427 126.392 64.427C126.004 64.427 113.49 57.3563 98.5846 48.7145ZM134.207 64.0703C133.548 63.41 133.736 0.564961 134.398 0.154931C135.132 -0.299536 189.806 31.3521 189.806 32.2313C189.806 32.7743 138.082 63.1395 135.467 64.1321C134.989 64.3134 134.422 64.2856 134.207 64.0703Z" fill="#34A9D8"/>
<path d="M98.9412 280.727C84.2485 272.214 72.2271 265.066 72.2271 264.843C72.2271 264.437 125.472 233.35 126.168 233.35C126.371 233.35 126.537 247.493 126.537 264.778C126.537 282.063 126.339 296.206 126.096 296.206C125.854 296.206 113.634 289.24 98.9412 280.727ZM134.749 295.832C134.203 295.284 134.292 234.03 134.839 233.691C135.482 233.293 188.406 264.066 188.406 264.839C188.406 265.296 136.02 296.206 135.245 296.206C135.178 296.206 134.955 296.037 134.749 295.832ZM67.7479 226.115C67.7479 208.797 67.9001 194.627 68.0859 194.627C68.2719 194.627 80.4947 201.623 95.2479 210.174C116.434 222.452 121.923 225.862 121.365 226.396C120.603 227.126 70.0109 256.732 68.5996 257.275C67.8435 257.566 67.7479 254.068 67.7479 226.115ZM166.29 242.27C151.971 233.922 139.935 226.781 139.544 226.402C138.977 225.852 144.271 222.565 165.693 210.17C180.465 201.621 192.69 194.627 192.859 194.627C193.027 194.627 193.166 208.77 193.166 226.055C193.166 243.34 192.977 257.475 192.746 257.466C192.515 257.458 180.61 250.619 166.29 242.27ZM99.1023 203.304C84.4749 194.82 72.4343 187.663 72.3455 187.4C72.1936 186.95 124.22 156.393 125.802 156.003C126.403 155.855 126.537 161.581 126.537 187.29C126.537 204.598 126.349 218.753 126.118 218.745C125.887 218.736 113.73 211.789 99.1023 203.304ZM134.734 218.37C134.167 217.801 134.312 156.571 134.881 156.218C135.45 155.866 188.273 186.37 188.553 187.212C188.679 187.591 146.249 212.616 135.434 218.541C135.246 218.644 134.931 218.567 134.734 218.37ZM591.34 196.803C587.432 196.152 580.857 193.491 576.924 190.969C572.901 188.39 568.299 184.076 568.299 182.884C568.299 181.984 573.237 176.668 574.074 176.668C574.303 176.668 576.162 178.089 578.205 179.826C588.738 188.782 601.771 190.018 609.933 182.836C613.409 179.776 614.476 177.146 614.484 171.618C614.49 167.415 614.307 166.534 612.948 164.217C610.143 159.435 605.231 156.294 594.975 152.726C583.2 148.63 576.881 144.14 573.608 137.546C572.23 134.768 571.963 133.474 571.766 128.618C571.5 122.024 572.423 117.924 575.135 113.651C581.09 104.273 595.29 100.753 608.455 105.391C611.954 106.624 619.118 111.132 619.606 112.408C619.947 113.298 614.941 120.158 614.259 119.736C614.021 119.588 612.5 118.573 610.88 117.48C602.753 111.999 590.737 111.896 585.859 117.266C582.317 121.165 580.816 128.072 582.531 132.574C583.556 135.264 586.853 138.621 589.74 139.913C590.727 140.355 595.115 142.115 599.49 143.824C603.865 145.534 609.03 147.858 610.968 148.988C615.561 151.669 620.781 157.037 622.889 161.248C624.49 164.445 624.568 164.932 624.558 171.618C624.547 177.635 624.361 179.097 623.243 181.897C621.648 185.895 616.567 191.529 612.611 193.687C606.788 196.864 598.762 198.04 591.34 196.803ZM697.526 196.867C687.767 195.312 679.355 190.895 671.88 183.402C664.915 176.42 661.729 170.917 659.168 161.448C657.808 156.421 657.833 144.17 659.214 138.787C661.43 130.151 667.715 119.817 673.942 114.572C680.397 109.134 688.103 105.274 695.676 103.685C699.994 102.778 709.835 102.778 714.153 103.685C731.996 107.429 746.624 121.62 750.849 139.284C752.35 145.557 752.332 155.102 750.807 161.476C746.899 177.819 733.885 191.045 717.062 195.772C712.413 197.078 702.383 197.64 697.526 196.867H697.526ZM714.153 186.382C723.686 184.023 733.402 176.11 737.839 167.092C743.304 155.983 743.208 143.633 737.572 132.726C734.435 126.653 727.358 119.744 721.151 116.693C708.847 110.645 695.706 111.592 684.313 119.347C677.503 123.983 671.566 132.447 669.303 140.751C667.747 146.458 667.983 155.515 669.837 161.235C671.805 167.31 674.79 172.212 679.208 176.629C688.649 186.067 701.234 189.58 714.153 186.382ZM803.661 196.595C799.337 195.652 794.257 193.607 790.208 191.178C786.663 189.051 781.061 184.004 781.061 182.937C781.061 182.097 786.02 176.668 786.788 176.668C787.081 176.668 789 178.07 791.05 179.784C802.474 189.33 816.242 190.135 823.843 181.701C826.661 178.574 827.533 176.293 827.529 172.056C827.523 167.178 826.763 164.879 824.175 161.932C820.929 158.235 817.563 156.309 808.352 152.877C797.774 148.936 794.068 146.921 790.564 143.208C786.519 138.921 784.899 135.062 784.547 128.876C783.67 113.449 793.245 103.666 809.336 103.552C817.934 103.491 825.159 105.938 830.886 110.852L833.172 112.813L831.664 114.856C830.836 115.98 829.523 117.591 828.748 118.435L827.338 119.971L825.472 118.545C817.11 112.152 804.734 111.448 799.147 117.048C796.186 120.016 794.856 123.445 794.814 128.215C794.782 131.815 794.956 132.489 796.48 134.669C798.616 137.725 802.264 139.934 809.68 142.66C827.941 149.374 835.829 156.452 837.706 167.807C838.973 175.468 836.258 184.251 830.994 189.527C824.519 196.018 813.767 198.798 803.661 196.595ZM344.172 195.957C343.573 195.356 343.691 135.139 344.291 135.139C344.573 135.139 346.969 138.069 349.616 141.649L354.429 148.159L354.283 172.095L354.137 196.03L349.351 196.191C346.719 196.279 344.388 196.174 344.172 195.957L344.172 195.957ZM430.384 195.944C430.16 195.72 429.996 181.131 430.017 163.523C430.041 144.469 429.848 131.439 429.541 131.337C429.258 131.242 426.63 134.521 423.702 138.624C420.774 142.726 414.381 151.152 409.494 157.348C404.607 163.544 398.845 170.922 396.689 173.744C394.534 176.565 392.518 178.874 392.21 178.875C391.532 178.877 363.891 142.689 352.356 126.699L344.073 115.216L343.879 108.279C343.722 102.683 343.829 101.39 344.432 101.591C345.222 101.854 348.199 105.655 374.804 140.359C385.374 154.147 391.802 162.073 392.327 161.966C392.783 161.873 403.525 148.305 416.199 131.815C428.872 115.326 439.558 101.73 439.945 101.603C440.506 101.418 440.619 110.923 440.505 148.701L440.361 196.03L435.576 196.191C432.944 196.279 430.607 196.168 430.384 195.944L430.384 195.944ZM477.853 195.609C477.706 195.223 477.651 174.452 477.73 149.45L477.875 103.992H505.87H533.865V108.762V113.533L511.113 113.679L488.361 113.826L488.025 115.082C487.587 116.719 487.587 141.773 488.024 143.41L488.36 144.666L508.593 144.813L528.826 144.96V149.73V154.501L508.593 154.648L488.36 154.795L488.024 156.051C487.84 156.742 487.685 163.539 487.681 171.157C487.675 183.006 487.8 185.134 488.553 185.888C489.325 186.662 492.288 186.77 512.629 186.77H535.825V191.54V196.311H506.972C484.406 196.311 478.062 196.158 477.853 195.609L477.853 195.609ZM67.7479 148.548C67.7479 119.508 67.8199 117.088 68.6725 117.416C69.1809 117.612 81.4186 124.62 95.8671 132.99C117.026 145.247 121.993 148.342 121.398 148.897C120.661 149.584 68.4206 180.036 67.9799 180.036C67.8523 180.036 67.7479 165.866 67.7479 148.548ZM166.121 164.63C151.709 156.218 139.662 149.08 139.351 148.768C138.969 148.385 147.369 143.233 165.119 132.959C179.604 124.577 191.839 117.57 192.31 117.389C193.071 117.097 193.166 120.533 193.166 148.548C193.166 165.866 192.977 180.011 192.746 179.981C192.515 179.95 180.534 173.043 166.121 164.63ZM98.6991 48.0083C84.1578 39.599 72.3366 32.4661 72.4298 32.1575C72.6343 31.4809 124.839 1.05224 125.838 1.02767C126.389 1.01495 126.537 7.60481 126.537 32.1575C126.537 56.7027 126.389 63.3038 125.838 63.3012C125.453 63.2995 113.24 56.4176 98.6991 48.0083ZM134.376 32.2229C134.376 7.62177 134.524 1.01254 135.076 1.02039C136.065 1.03524 188.3 31.4752 188.507 32.1575C188.677 32.7227 137.546 62.6044 135.483 63.1452C134.39 63.4317 134.376 63.0394 134.376 32.2229Z" fill="#024561"/>
</g>
<defs>
<clipPath id="clip0_21_13">
<rect width="263" height="297" fill="white"/>
</clipPath>
</defs>
</svg>
