<svg width="164" height="160" viewBox="0 0 164 160" fill="none" xmlns="http://www.w3.org/2000/svg">
<path d="M86.2264 1.39279L86.2264 1.39286L86.2342 1.39662L143.424 29.0269C146.131 30.4865 148.275 32.8423 149.17 35.7154L163.413 97.5649C163.766 100.654 163.044 103.731 161.256 106.264L121.694 155.655L121.687 155.664L121.68 155.674C119.714 158.38 116.696 159.803 113.513 159.446L113.486 159.443H113.458H50.4589C47.4143 159.258 44.355 157.81 42.1904 155.634L2.64532 106.264C0.854012 103.727 0.138704 100.653 0.673177 97.5779L14.7353 35.3198C14.7354 35.3193 14.7355 35.3187 14.7357 35.3181C15.451 32.2518 17.4116 29.9156 20.0876 28.6552L20.0876 28.6553L20.0933 28.6525L77.2463 0.851083C78.6636 0.502659 80.2671 0.5 81.7632 0.5C83.2293 0.5 84.8268 0.686496 86.2264 1.39279Z" fill="#48718F" stroke="#F7FFF6"/>
<path d="M56.24 91.33C54.68 91.33 53.23 91.06 51.89 90.52C50.57 89.96 49.4 89.19 48.38 88.21C47.38 87.21 46.6 86.06 46.04 84.76C45.5 83.44 45.23 82.02 45.23 80.5C45.23 78.98 45.5 77.57 46.04 76.27C46.6 74.95 47.38 73.8 48.38 72.82C49.4 71.82 50.58 71.05 51.92 70.51C53.26 69.95 54.7 69.67 56.24 69.67C57.34 69.67 58.41 69.82 59.45 70.12C60.51 70.4 61.48 70.81 62.36 71.35C63.26 71.89 64.04 72.54 64.7 73.3L62.6 75.46C61.82 74.52 60.87 73.81 59.75 73.33C58.63 72.83 57.46 72.58 56.24 72.58C55.12 72.58 54.08 72.78 53.12 73.18C52.18 73.58 51.36 74.14 50.66 74.86C49.96 75.56 49.41 76.39 49.01 77.35C48.63 78.31 48.44 79.36 48.44 80.5C48.44 81.62 48.63 82.66 49.01 83.62C49.41 84.58 49.97 85.42 50.69 86.14C51.41 86.86 52.25 87.42 53.21 87.82C54.17 88.22 55.21 88.42 56.33 88.42C57.55 88.42 58.7 88.18 59.78 87.7C60.88 87.2 61.81 86.5 62.57 85.6L64.64 87.7C63.94 88.44 63.14 89.09 62.24 89.65C61.36 90.19 60.4 90.61 59.36 90.91C58.34 91.19 57.3 91.33 56.24 91.33ZM74.1823 91.3C72.7023 91.3 71.3523 90.95 70.1323 90.25C68.9323 89.55 67.9823 88.6 67.2823 87.4C66.5823 86.2 66.2323 84.86 66.2323 83.38C66.2323 81.9 66.5823 80.56 67.2823 79.36C67.9823 78.16 68.9323 77.21 70.1323 76.51C71.3523 75.79 72.7023 75.43 74.1823 75.43C75.6823 75.43 77.0323 75.79 78.2323 76.51C79.4323 77.21 80.3823 78.16 81.0823 79.36C81.7823 80.56 82.1323 81.9 82.1323 83.38C82.1323 84.86 81.7823 86.2 81.0823 87.4C80.3823 88.6 79.4323 89.55 78.2323 90.25C77.0323 90.95 75.6823 91.3 74.1823 91.3ZM74.1823 88.66C75.1223 88.66 75.9723 88.43 76.7323 87.97C77.4923 87.49 78.0923 86.85 78.5323 86.05C78.9723 85.25 79.1923 84.35 79.1923 83.35C79.1923 82.37 78.9623 81.49 78.5023 80.71C78.0623 79.91 77.4623 79.27 76.7023 78.79C75.9623 78.31 75.1223 78.07 74.1823 78.07C73.2423 78.07 72.3923 78.31 71.6323 78.79C70.8923 79.27 70.2923 79.91 69.8323 80.71C69.3923 81.49 69.1723 82.37 69.1723 83.35C69.1723 84.35 69.3923 85.25 69.8323 86.05C70.2723 86.85 70.8723 87.49 71.6323 87.97C72.3923 88.43 73.2423 88.66 74.1823 88.66ZM91.9892 91.24C90.5692 91.24 89.2692 90.89 88.0892 90.19C86.9092 89.49 85.9792 88.55 85.2992 87.37C84.6192 86.17 84.2792 84.83 84.2792 83.35C84.2792 81.87 84.6192 80.54 85.2992 79.36C85.9992 78.18 86.9392 77.24 88.1192 76.54C89.2992 75.84 90.6092 75.49 92.0492 75.49C92.8892 75.49 93.6992 75.62 94.4792 75.88C95.2592 76.14 95.9792 76.52 96.6392 77.02V70L99.6392 69.43V91H96.6692V89.53C95.3692 90.67 93.8092 91.24 91.9892 91.24ZM92.3792 88.63C93.2592 88.63 94.0592 88.47 94.7792 88.15C95.5192 87.83 96.1392 87.37 96.6392 86.77V79.9C96.1392 79.34 95.5192 78.9 94.7792 78.58C94.0592 78.24 93.2592 78.07 92.3792 78.07C91.4192 78.07 90.5492 78.3 89.7692 78.76C88.9892 79.22 88.3692 79.85 87.9092 80.65C87.4492 81.43 87.2192 82.32 87.2192 83.32C87.2192 84.32 87.4492 85.22 87.9092 86.02C88.3692 86.82 88.9892 87.46 89.7692 87.94C90.5492 88.4 91.4192 88.63 92.3792 88.63ZM110.512 91.27C109.012 91.27 107.652 90.92 106.432 90.22C105.232 89.52 104.272 88.57 103.552 87.37C102.852 86.17 102.502 84.83 102.502 83.35C102.502 81.89 102.842 80.57 103.522 79.39C104.202 78.19 105.122 77.24 106.282 76.54C107.442 75.82 108.732 75.46 110.152 75.46C111.572 75.46 112.832 75.82 113.932 76.54C115.032 77.24 115.902 78.2 116.542 79.42C117.202 80.62 117.532 81.98 117.532 83.5V84.34H105.502C105.662 85.18 105.972 85.93 106.432 86.59C106.912 87.25 107.512 87.77 108.232 88.15C108.972 88.53 109.772 88.72 110.632 88.72C111.372 88.72 112.082 88.61 112.762 88.39C113.462 88.15 114.042 87.81 114.502 87.37L116.422 89.26C115.522 89.94 114.592 90.45 113.632 90.79C112.692 91.11 111.652 91.27 110.512 91.27ZM105.532 82.09H114.562C114.442 81.29 114.162 80.59 113.722 79.99C113.302 79.37 112.772 78.89 112.132 78.55C111.512 78.19 110.832 78.01 110.092 78.01C109.332 78.01 108.632 78.18 107.992 78.52C107.352 78.86 106.812 79.34 106.372 79.96C105.952 80.56 105.672 81.27 105.532 82.09Z" fill="white"/>
</svg>
