<svg width="944" height="219" viewBox="0 0 944 219" fill="none" xmlns="http://www.w3.org/2000/svg">
<path d="M60.6829 176.003C52.081 176.003 44.261 168.957 44.261 160.345C44.261 151.733 51.299 144.687 60.6829 144.687C70.0669 144.687 77.1048 151.733 77.1048 160.345C77.1048 168.957 69.2849 176.003 60.6829 176.003ZM262.438 90.6679C260.874 78.1416 253.054 67.9641 242.888 60.1352L238.978 57.0037L235.85 60.9181C229.594 67.9641 227.248 80.4903 228.03 89.885C228.812 96.931 231.158 103.977 235.068 109.457C231.94 111.023 228.03 112.589 224.902 114.154C217.864 116.503 210.826 117.286 203.788 117.286H1.25119L0.469198 121.983C-1.09479 136.858 1.25119 152.516 7.50716 166.608L10.6351 172.088V172.871C29.4031 204.187 63.0289 218.279 99.7827 218.279C170.162 218.279 228.03 187.746 255.4 121.983C273.386 122.766 291.372 118.069 299.974 100.845L302.32 96.931L298.41 94.5823C288.244 88.3192 274.168 87.5363 262.438 90.6679ZM161.56 78.1416H131.063V108.674H161.56V78.1416ZM161.56 39.7801H131.063V70.3128H161.56V39.7801ZM161.56 0.635742H131.063V31.1684H161.56V0.635742ZM199.096 78.1416H168.598V108.674H199.096V78.1416ZM85.7068 78.1416H55.2089V108.674H85.7068V78.1416ZM124.025 78.1416H93.5268V108.674H124.025V78.1416ZM48.171 78.1416H17.6731V108.674H48.171V78.1416ZM124.025 39.7801H93.5268V70.3128H124.025V39.7801ZM85.7068 39.7801H55.2089V70.3128H85.7068V39.7801Z" fill="#066DA5"/>
<path d="M789.503 157.213C802.797 145.47 816.091 134.51 829.385 122.766C834.077 118.852 838.769 114.937 843.461 110.24C839.551 105.543 834.077 102.411 828.603 100.063C818.437 96.1481 808.271 97.7139 798.105 103.194C785.594 110.24 780.12 121.983 780.902 136.075C780.902 141.556 782.466 147.036 785.594 151.733C787.939 154.082 788.721 155.648 789.503 157.213ZM805.143 168.174C811.399 170.522 819.219 170.522 826.257 168.957C829.385 167.391 838.769 163.476 841.897 164.259H843.461C845.807 165.042 847.371 166.608 848.153 168.957C850.499 173.654 849.717 178.351 845.025 180.7L843.461 181.483C826.257 191.66 808.271 190.095 791.067 180.7C783.247 176.003 776.992 169.74 772.3 161.911L771.518 160.345C760.57 141.556 762.134 121.201 774.646 103.194C778.556 96.931 784.811 92.2337 791.067 88.3192L793.413 86.7535C809.835 77.3588 827.039 78.1417 843.461 85.9706C852.063 90.6679 859.883 96.931 864.575 105.543L865.357 107.109C869.267 113.372 864.575 118.852 859.101 122.766L842.679 136.858C828.603 147.819 816.873 157.996 805.143 168.174ZM932.609 82.0561H934.173C939.647 82.0561 943.557 85.9706 943.557 91.4508C943.557 99.2797 936.519 100.845 930.263 100.845C922.443 100.845 914.623 105.543 909.149 111.023C902.111 118.069 898.983 126.681 898.983 136.075V179.917C898.983 184.614 895.855 189.312 890.381 189.312H888.817C883.343 189.312 880.215 185.397 880.215 179.917V133.727C880.215 115.72 888.817 101.628 902.893 91.4508C913.059 85.1877 922.443 82.0561 932.609 82.0561ZM708.958 112.589L730.072 91.4508C732.418 89.885 739.456 81.2732 742.584 81.2732H745.712C749.622 82.0561 752.75 84.4048 752.75 89.1021V90.6679C752.75 93.7995 748.84 96.931 747.276 99.2797C743.366 103.977 738.674 107.891 734.764 112.589L712.868 134.51L741.02 162.694L748.84 170.522L751.968 173.654C752.75 175.22 753.532 176.003 753.532 177.568V179.917C752.75 183.832 749.622 186.963 745.712 186.963H744.148C741.02 186.963 737.892 183.832 735.546 181.483C731.636 177.568 726.944 173.654 723.034 168.957L708.958 155.648V177.568C708.958 182.266 705.83 186.963 700.356 186.963H698.792C693.318 186.963 690.19 183.049 690.19 177.568V57.0037C690.19 52.3064 693.318 48.3919 698.792 48.3919H700.356C705.83 48.3919 708.958 52.3064 708.958 57.0037V112.589ZM651.09 100.845C648.744 99.2797 643.27 99.2797 640.142 99.2797C625.284 98.4968 614.336 107.109 608.08 120.418C605.734 125.115 604.952 129.812 604.952 135.293C604.952 150.95 612.772 161.911 626.848 168.174C631.54 170.522 638.578 171.305 644.052 171.305C648.744 171.305 655.782 168.174 659.692 166.608H663.602C667.512 167.391 670.64 169.74 670.64 174.437V176.003C670.64 186.963 650.308 189.312 643.27 190.095C616.682 191.66 596.35 176.786 588.53 151.733C586.966 147.036 586.966 143.121 586.966 138.424V134.51C586.966 114.937 596.35 99.2797 613.554 89.885C621.374 85.1877 629.976 82.839 639.36 82.839H643.27C652.654 82.839 662.038 85.1877 669.858 90.6679L670.64 91.4508L671.422 92.2337C672.204 93.7995 672.986 95.3652 672.986 96.931V98.4968C672.986 103.194 669.858 105.543 665.166 106.326H664.384C658.91 104.76 652.654 101.628 651.09 100.845ZM486.871 134.51C486.871 147.819 493.909 157.996 504.857 165.042C510.331 168.174 516.587 169.74 522.843 169.74C536.137 169.74 546.303 162.694 553.341 151.733C556.469 146.253 558.033 139.99 558.033 133.727C558.033 121.201 551.777 111.023 541.611 103.977C536.137 100.063 529.099 98.4968 522.843 98.4968C507.985 98.4968 497.037 106.326 490.781 119.635C486.871 125.115 486.871 129.812 486.871 134.51ZM519.715 81.2732H522.061C543.175 81.2732 558.815 91.4508 568.981 109.457C572.891 116.503 575.236 124.332 575.236 132.944V136.858C575.236 156.43 565.853 172.088 548.649 181.483C540.829 186.18 532.227 188.529 522.843 188.529H518.933C499.383 188.529 483.743 179.134 474.359 161.911C469.667 154.082 467.321 145.47 467.321 136.075V132.161C467.321 112.589 476.705 96.931 493.909 87.5364C502.511 83.6219 510.331 81.2732 519.715 81.2732ZM368.008 134.51C368.008 148.602 375.045 159.562 387.557 165.825C392.249 168.174 397.723 169.74 403.979 169.74C418.055 169.74 428.221 163.476 435.259 151.733C438.387 146.253 439.951 139.99 439.951 133.727C439.951 121.201 434.477 111.806 424.311 104.76C418.055 100.845 411.799 98.4968 403.979 98.4968C389.121 98.4968 378.173 106.326 371.917 119.635C369.572 125.115 368.008 129.812 368.008 134.51ZM439.951 94.5823V56.2208C439.951 51.5235 443.079 46.8262 448.553 46.8262H450.117C455.591 46.8262 458.719 50.7406 458.719 56.2208V136.858C458.719 156.43 449.335 172.088 432.131 181.483C424.311 186.18 415.709 188.529 406.325 188.529H402.415C382.865 188.529 367.226 179.134 357.842 161.911C353.15 154.082 350.804 145.47 350.804 136.075V132.161C350.804 112.589 360.188 96.931 377.391 87.5364C385.211 82.839 393.813 80.4904 403.197 80.4904H407.107C418.837 81.2732 430.567 85.9706 439.951 94.5823Z" fill="#066DA5"/>
</svg>
