<svg width="80" height="78" viewBox="0 0 80 78" fill="none" xmlns="http://www.w3.org/2000/svg">
<path d="M73.0015 17.1989C72.5441 15.7352 71.4463 14.5459 70.074 13.814L42.1716 0.457418C41.4397 0.0914835 40.6163 0 39.8845 0C39.1526 0 38.3292 0 37.5974 0.182967L9.69491 13.631C8.32265 14.2714 7.31634 15.4607 6.9504 17.0159L0.0891377 47.114C-0.185313 48.6692 0.180621 50.2245 1.09546 51.5052L20.3985 75.3824C21.4963 76.4802 23.0515 77.2121 24.6067 77.3036H55.3452C56.9919 77.4865 58.5471 76.7547 59.5534 75.3824L78.8564 51.5052C79.7713 50.2245 80.1372 48.6692 79.9543 47.114L73.0015 17.1989V17.1989Z" fill="#326DE6"/>
<path d="M68.7018 45.9247C68.6103 45.9247 68.5188 45.9247 68.5188 45.8332C68.5188 45.7417 68.3358 45.7417 68.1529 45.7417C67.7869 45.6503 67.421 45.6503 67.0551 45.6503C66.8721 45.6503 66.6891 45.6503 66.5062 45.5588H66.4147C65.4084 45.4673 64.3106 45.2843 63.3042 45.0099C63.0298 44.9184 62.7553 44.6439 62.6639 44.3695C62.7553 44.3695 62.6639 44.3695 62.6639 44.3695L61.932 44.1865C62.2979 41.5335 62.115 38.789 61.5661 36.136C60.9257 33.483 59.8279 30.9214 58.3641 28.6343L58.913 28.0854V27.9939C58.913 27.7195 59.0045 27.3536 59.1875 27.1706C60.0108 26.4387 60.8342 25.8898 61.749 25.3409C61.932 25.2494 62.115 25.158 62.2979 25.0665C62.6639 24.8835 62.9383 24.7005 63.3042 24.5176C63.3957 24.4261 63.4872 24.4261 63.5787 24.3346C63.6702 24.2431 63.5787 24.2431 63.5787 24.1516C64.402 23.5113 64.585 22.4134 63.9446 21.5901C63.6702 21.2242 63.1213 20.9497 62.6639 20.9497C62.2064 20.9497 61.749 21.1327 61.3831 21.4071L61.2916 21.4986C61.2001 21.5901 61.1086 21.6816 61.0172 21.6816C60.7427 21.956 60.4683 22.2305 60.2853 22.5049C60.1938 22.6879 60.0108 22.7794 59.9194 22.8709C59.279 23.6027 58.4556 24.3346 57.6323 24.8835C57.4493 24.975 57.2663 25.0665 57.0834 25.0665C56.9919 25.0665 56.8089 25.0665 56.7174 24.975H56.6259L55.8941 25.4324C55.1622 24.7005 54.3389 23.9687 53.607 23.2368C50.2221 20.5838 46.0139 18.9371 41.7141 18.4797L41.6227 17.7478V17.8393C41.3482 17.6563 41.2567 17.3819 41.1652 17.1074C41.1652 16.1011 41.1652 15.0948 41.3482 13.997V13.9055C41.3482 13.7225 41.4397 13.5395 41.4397 13.3566C41.5312 12.9906 41.5312 12.6247 41.6227 12.2588V11.7099C41.7141 10.795 40.9823 9.88021 40.0674 9.78872C39.5185 9.69724 38.9696 9.97169 38.5122 10.4291C38.1463 10.795 37.9633 11.2525 37.9633 11.7099V12.1673C37.9633 12.5332 38.0548 12.8992 38.1463 13.2651C38.2378 13.4481 38.2378 13.631 38.2378 13.814V13.9055C38.4207 14.9118 38.4207 15.9181 38.4207 17.0159C38.3292 17.2904 38.2378 17.5648 37.9633 17.7478V17.9308L37.8718 18.6626C36.8655 18.7541 35.8592 18.9371 34.7614 19.12C30.4617 20.0349 26.5279 22.322 23.5089 25.5239L22.96 25.158H22.8685C22.777 25.158 22.6856 25.2494 22.5026 25.2494C22.3196 25.2494 22.1367 25.158 21.9537 25.0665C21.1303 24.4261 20.307 23.6942 19.6666 22.9624C19.5751 22.7794 19.3922 22.6879 19.3007 22.5964C19.0262 22.322 18.8433 22.0475 18.5688 21.7731C18.4773 21.6816 18.3858 21.6816 18.2944 21.5901C18.2029 21.4986 18.2029 21.4986 18.2029 21.4986C17.8369 21.2242 17.3795 21.0412 16.9221 21.0412C16.3732 21.0412 15.9158 21.2242 15.6413 21.6816C15.0924 22.5049 15.2754 23.6027 16.0073 24.2431C16.0987 24.2431 16.0987 24.3346 16.0987 24.3346C16.0987 24.3346 16.2817 24.5176 16.3732 24.5176C16.6477 24.7005 17.0136 24.8835 17.3795 25.0665C17.5625 25.158 17.7455 25.2494 17.9284 25.3409C18.8433 25.8898 19.7581 26.4387 20.49 27.1706C20.6729 27.3536 20.8559 27.7195 20.7644 27.9939V27.9025L21.3133 28.4514C21.2218 28.6343 21.1303 28.7258 21.0389 28.9088C18.2029 33.3915 17.0136 38.6975 17.8369 43.9121L17.1051 44.095C17.1051 44.1865 17.0136 44.1865 17.0136 44.1865C16.9221 44.461 16.6477 44.6439 16.3732 44.8269C15.3669 45.1014 14.3606 45.2843 13.2628 45.3758C13.0798 45.3758 12.8968 45.3758 12.7139 45.4673C12.3479 45.4673 11.982 45.5588 11.6161 45.5588C11.5246 45.5588 11.4331 45.6503 11.2501 45.6503C11.1586 45.6503 11.1586 45.6503 11.0672 45.7417C10.0608 45.9247 9.42045 46.8395 9.60342 47.8459C9.78639 48.6692 10.6097 49.2181 11.4331 49.1266C11.6161 49.1266 11.7075 49.1266 11.8905 49.0352C11.982 49.0352 11.982 49.0352 11.982 48.9437C11.982 48.8522 12.2564 48.9437 12.3479 48.9437C12.7139 48.8522 13.0798 48.6692 13.3542 48.5777C13.5372 48.4863 13.7202 48.3948 13.9031 48.3948H13.9946C15.0009 48.0288 15.9158 47.7544 17.0136 47.5714H17.1051C17.3795 47.5714 17.654 47.6629 17.8369 47.8459C17.9284 47.8459 17.9284 47.9374 17.9284 47.9374L18.7518 47.8459C20.124 52.0541 22.6856 55.8049 26.2534 58.5494C27.0768 59.1898 27.8086 59.7387 28.7235 60.1961L28.2661 60.8365C28.2661 60.928 28.3575 60.928 28.3575 60.928C28.5405 61.2025 28.5405 61.5684 28.449 61.8428C28.0831 62.7577 27.5342 63.6725 26.9853 64.4959V64.5874C26.8938 64.7703 26.8023 64.8618 26.6194 65.0448C26.4364 65.2277 26.2534 65.5937 25.979 65.9596C25.8875 66.0511 25.8875 66.1426 25.796 66.2341C25.796 66.2341 25.796 66.3255 25.7045 66.3255C25.2471 67.2404 25.613 68.3382 26.4364 68.7956C26.6194 68.8871 26.8938 68.9786 27.0768 68.9786C27.8086 68.9786 28.449 68.5211 28.815 67.8808C28.815 67.8808 28.815 67.7893 28.9064 67.7893C28.9064 67.6978 28.9979 67.6063 29.0894 67.5148C29.1809 67.1489 29.3639 66.8744 29.4553 66.5085L29.6383 65.9596C29.9128 64.9533 30.3702 64.0385 30.8276 63.1236C31.0106 62.8492 31.285 62.6662 31.5595 62.5747C31.6509 62.5747 31.6509 62.5747 31.6509 62.4832L32.0169 61.7514C34.5784 62.7577 37.2314 63.2151 39.9759 63.2151C41.6227 63.2151 43.2694 63.0321 44.9161 62.5747C45.9224 62.3917 46.9287 62.0258 47.8435 61.7514L48.2095 62.3917C48.3009 62.3917 48.3009 62.3918 48.3009 62.4832C48.5754 62.5747 48.8498 62.7577 49.0328 63.0321C49.4902 63.947 49.9477 64.8618 50.2221 65.8681V65.9596L50.4051 66.5085C50.4966 66.8744 50.588 67.2404 50.771 67.5148C50.8625 67.6063 50.8625 67.6978 50.954 67.7893C50.954 67.7893 50.954 67.8808 51.0455 67.8808C51.4114 68.5211 52.0518 68.9786 52.7836 68.9786C53.0581 68.9786 53.2411 68.8871 53.5155 68.7956C53.8814 68.6126 54.2474 68.2467 54.3389 67.7893C54.4303 67.3319 54.4303 66.8744 54.2474 66.417C54.2474 66.3255 54.1559 66.3255 54.1559 66.3255C54.1559 66.2341 54.0644 66.1426 53.9729 66.0511C53.79 65.6852 53.607 65.4107 53.3325 65.1363C53.2411 64.9533 53.1496 64.8618 52.9666 64.6788V64.4959C52.3262 63.6725 51.8688 62.7577 51.5029 61.8428C51.4114 61.5684 51.4114 61.2025 51.5944 60.928C51.5944 60.8365 51.6858 60.8365 51.6858 60.8365L51.4114 60.1047C56.077 57.2687 59.6449 52.8775 61.2916 47.6629L62.0235 47.7544C62.115 47.7544 62.115 47.6629 62.115 47.6629C62.2979 47.4799 62.5724 47.3884 62.8468 47.3884H62.9383C63.9446 47.5714 64.9509 47.8459 65.8658 48.2118H65.9573C66.1402 48.3033 66.3232 48.3948 66.5062 48.3948C66.8721 48.5777 67.1466 48.7607 67.5125 48.8522C67.604 48.8522 67.6955 48.9437 67.8784 48.9437C67.9699 48.9437 67.9699 48.9437 68.0614 49.0352C68.2444 49.1266 68.3358 49.1266 68.5188 49.1266C69.3422 49.1266 70.074 48.5777 70.3485 47.8459C70.257 46.8395 69.5251 46.1077 68.7018 45.9247V45.9247ZM42.263 43.0887L39.793 44.278L37.3229 43.0887L36.6825 40.4357L38.4207 38.2401H41.1652L42.9034 40.4357L42.263 43.0887V43.0887ZM57.1749 37.1423C57.6323 39.0634 57.7237 40.9846 57.5408 42.9058L48.8498 40.4357C48.0265 40.2527 47.5691 39.4294 47.752 38.606C47.8435 38.3316 47.935 38.1486 48.118 37.9656L54.9792 31.7448C55.9856 33.3915 56.7174 35.2211 57.1749 37.1423V37.1423ZM52.2347 28.3599L44.7331 33.6659C44.0927 34.0319 43.1779 33.9404 42.7205 33.3C42.5375 33.117 42.446 32.9341 42.446 32.6596L41.8971 23.4198C45.9224 23.8772 49.4902 25.6154 52.2347 28.3599V28.3599ZM35.6762 23.6942L37.5059 23.3283L37.0485 32.4766C37.0485 33.3 36.3166 33.9404 35.4933 33.9404C35.2188 33.9404 35.0358 33.8489 34.7614 33.7574L27.1683 28.3599C29.5468 26.0728 32.4743 24.4261 35.6762 23.6942ZM24.5152 31.7448L31.285 37.7827C31.9254 38.3316 32.0169 39.2464 31.468 39.8868C31.285 40.1613 31.102 40.2527 30.7361 40.3442L21.8622 42.9058C21.5878 39.0635 22.5026 35.1297 24.5152 31.7448V31.7448ZM22.96 47.2055L32.0169 45.6503C32.7488 45.6503 33.4806 46.1077 33.5721 46.8396C33.6636 47.114 33.6636 47.4799 33.4806 47.7544L30.0042 56.1709C26.8023 54.0667 24.2408 50.8648 22.96 47.2055V47.2055ZM43.7268 58.5494C42.446 58.8239 41.1652 59.0069 39.793 59.0069C37.8718 59.0069 35.8592 58.6409 34.0295 58.092L38.5122 49.95C38.9696 49.4011 39.7015 49.2181 40.3419 49.5841C40.6163 49.767 40.7993 49.95 41.0737 50.2244L45.465 58.1835C44.9161 58.275 44.3672 58.3665 43.7268 58.5494V58.5494ZM54.8878 50.5904C53.5155 52.786 51.5944 54.7071 49.3988 56.0794L45.8309 47.4799C45.6479 46.7481 46.0139 46.0162 46.6542 45.7417C46.9287 45.6503 47.2031 45.5588 47.4776 45.5588L56.6259 47.114C56.1685 48.3948 55.6196 49.5841 54.8878 50.5904Z" fill="white"/>
</svg>
